<svg width="38" height="28" viewBox="0 0 38 28" fill="none" xmlns="http://www.w3.org/2000/svg">
<path d="M31.6825 0.904338C35.5359 3.99223 38 8.71488 38 14C38 19.2852 35.5359 24.002 31.6825 27.0957C31.0709 27.5879 30.1744 27.4942 29.6756 26.8907C29.1769 26.2872 29.2719 25.4024 29.8834 24.9102C33.1016 22.3321 35.15 18.4063 35.15 14C35.15 9.59379 33.1016 5.66801 29.8834 3.08403C29.2719 2.59184 29.1828 1.70707 29.6756 1.10356C30.1684 0.500041 31.0709 0.412151 31.6825 0.898479V0.904338ZM28.0903 5.26957C30.6553 7.33207 32.3 10.4786 32.3 14C32.3 17.5215 30.6553 20.668 28.0903 22.7305C27.4788 23.2227 26.5822 23.1289 26.0834 22.5254C25.5847 21.9219 25.6797 21.0372 26.2912 20.545C28.2209 18.9981 29.45 16.6426 29.45 14C29.45 11.3575 28.2209 9.00199 26.2912 7.44926C25.6797 6.95707 25.5906 6.07231 26.0834 5.46879C26.5762 4.86528 27.4788 4.77739 28.0903 5.26371V5.26957ZM24.4981 9.63481C25.7747 10.6661 26.6 12.2364 26.6 14C26.6 15.7637 25.7747 17.334 24.4981 18.3653C23.8866 18.8575 22.99 18.7637 22.4912 18.1602C21.9925 17.5567 22.0875 16.6719 22.6991 16.1797C23.3403 15.6641 23.75 14.8789 23.75 14C23.75 13.1211 23.3403 12.336 22.6991 11.8145C22.0875 11.3223 21.9984 10.4375 22.4912 9.83403C22.9841 9.23051 23.8866 9.14262 24.4981 9.62895V9.63481ZM17.8778 1.0391C18.5606 1.34379 19 2.01176 19 2.75004V25.25C19 25.9883 18.5606 26.6563 17.8778 26.961C17.195 27.2657 16.3934 27.1426 15.8353 26.6504L7.82562 19.625H3.8C1.70406 19.625 0 17.9434 0 15.875V12.125C0 10.0567 1.70406 8.37504 3.8 8.37504H7.82562L15.8353 1.34965C16.3934 0.857463 17.195 0.740276 17.8778 1.0391Z" fill="black"/>
</svg>
